# xmcd
#
# Track frame offsets:
#	150
#	18002
#	34288
#	51512
#	68249
#	81659
#	104190
#	118847
#	134710
#	151427
#	165895
#
# Disc length: 2424 seconds
#
# Revision: 0
# Processed by: cddbd v1.5.1PL2 Copyright (c) Steve Scherf et al.
# Submitted via: EasyCDDAExtractor 9.1.3.1
#
DISCID=9f09760b
DTITLE=Ashley Gearing - Maybe It's Time
DYEAR=2006
DGENRE=Country
TTITLE0=I Found It In You
TTITLE1=Too Bad You're No Good
TTITLE2=Love Has A Life Of It's Own
TTITLE3=Maybe It's Time
TTITLE4=Out There Somewhere
TTITLE5=Ode To Billy Joe
TTITLE6=Sunday Paper
TTITLE7=Back To Blue
TTITLE8=Don't It Feel Good
TTITLE9=Girls
TTITLE10=Maybe It's Just The Moon
EXTD=
EXTT0=
EXTT1=
EXTT2=
EXTT3=
EXTT4=
EXTT5=
EXTT6=
EXTT7=
EXTT8=
EXTT9=
EXTT10=
PLAYORDER=
